<svg width="100" height="100" viewBox="0 0 100 100" fill="none" xmlns="http://www.w3.org/2000/svg">
<rect width="100" height="100" rx="10" fill="#F5F5F5"/>
<path d="M32.2091 79V23H48.7691C52.7157 23 56.0757 23.5867 58.8491 24.76C61.6224 25.88 63.7557 27.5867 65.2491 29.88C66.7424 32.1733 67.4891 35.08 67.4891 38.6C67.4891 42.9733 66.3424 46.28 64.0491 48.52C61.8091 50.76 58.7424 52.2267 54.8491 52.92L70.9291 79H62.6091L48.2091 54.2H38.9291V79H32.2091ZM38.9291 48.52H48.6091C51.5957 48.52 53.9691 48.1733 55.7291 47.48C57.4891 46.7333 58.7424 45.6133 59.4891 44.12C60.2357 42.6267 60.6091 40.7867 60.6091 38.6C60.6091 36.36 60.2357 34.4933 59.4891 33C58.7424 31.5067 57.4891 30.4133 55.7291 29.72C53.9691 28.9733 51.5957 28.6 48.6091 28.6H38.9291V48.52Z" fill="#171717"/>
</svg>
